<svg width="55" height="35" viewBox="0 0 55 35" fill="none" xmlns="http://www.w3.org/2000/svg">
<g clip-path="url(#clip0_4207_613)">
<path d="M0.00219727 34.98H54.9982V0H0.00219727V34.98Z" fill="black"/>
<path d="M0.638672 34.3526H54.4117V0.636719H0.638672V34.3526Z" fill="white"/>
<path d="M12.5 19.3129L13.5403 20.5076L14.6152 19.3208H15.4765V19.6875L14.1293 21.1797L15.4765 22.7752V19.3208H17.9079C18.3678 19.3208 19.042 19.5338 19.042 20.4889C19.042 21.8288 18.1548 21.8446 17.6689 21.8446H16.4063V23.1419H14.6065L13.5071 21.8706L12.3809 23.1325H8.80229V19.3121H12.5V19.3129V19.3129ZM23.5158 19.3129H26.5825V20.1366H24.4543V20.852H26.5233V21.5768H24.4543V22.3334H26.5825V23.1333H23.5158V19.3129V19.3129ZM20.4245 23.1427H19.486V19.3215H21.9254C22.3867 19.3215 23.0516 19.5265 23.0516 20.3445C23.0516 20.8065 22.9151 21.1465 22.4033 21.4028C22.8466 21.4541 23.0177 21.7443 23.0177 22.3579L23.0516 23.1427H22.1384L22.1131 22.4424C22.1051 22.119 21.9766 21.7948 21.6532 21.7948H20.4245V23.1427V23.1427ZM32.4719 20.8022C33.6263 20.8599 33.7216 21.4368 33.7216 22.0504C33.7216 22.7665 33.1332 23.1506 32.5189 23.1506H30.5487V22.3327H32.0843C32.3449 22.3327 32.7326 22.3327 32.7326 21.9645C32.7326 21.7898 32.664 21.6793 32.3868 21.649C32.1714 21.6281 31.9554 21.6131 31.7392 21.6042C30.6975 21.5768 30.4556 21.0592 30.4556 20.4282C30.4556 19.7121 30.9588 19.3201 31.5731 19.3201H33.5433V20.1395H32.1016C31.7738 20.1438 31.4194 20.1005 31.4194 20.4723C31.4194 20.7062 31.5948 20.7531 31.8157 20.7755C31.8922 20.7762 32.4041 20.8022 32.4719 20.8022V20.8022ZM28.9576 20.8022C30.1113 20.8599 30.2073 21.4368 30.2073 22.0504C30.2073 22.7665 29.6182 23.1506 29.0045 23.1506H27.0337V22.3327H28.5692C28.8291 22.3327 29.2182 22.3327 29.2182 21.9645C29.2182 21.7898 29.1497 21.6793 28.8724 21.649C28.7483 21.6317 28.292 21.6057 28.2249 21.6042C27.1831 21.5768 26.9413 21.0592 26.9413 20.4282C26.9413 19.7121 27.4445 19.3201 28.0581 19.3201H30.029V20.1395H28.5873C28.2588 20.1438 27.9051 20.1005 27.9051 20.4723C27.9051 20.7062 28.0798 20.7531 28.3021 20.7755C28.3779 20.7762 28.8898 20.8022 28.9576 20.8022V20.8022ZM16.594 16.5746H15.6555V12.7535H18.0949C18.5555 12.7535 19.2218 12.9585 19.2218 13.7764C19.2218 14.2377 19.0853 14.5792 18.5735 14.8348C19.0168 14.886 19.1879 15.1762 19.1879 15.7899L19.2218 16.5746H18.3093L18.2833 15.8751C18.2746 15.5509 18.1476 15.2275 17.8227 15.2275H16.5947V16.5746H16.594V16.5746ZM19.6997 16.5746H20.6375V12.7491H19.6997V16.5746ZM12.0517 12.7535H15.1177V13.5765H12.9916V14.2933H15.0592V15.0189H12.9916V15.7733H15.1177V16.5746H12.0517V12.7535V12.7535ZM5.20423 16.5746H7.0935V13.7389L8.34675 16.5746H9.20007L10.4829 13.7858V16.5746H11.4207V12.7535H9.92415L8.77269 15.317L7.62556 12.7535H6.15428V16.4338L4.51624 12.7535H3.27597L1.604 16.5746H2.59376L2.95977 15.722H4.83172L5.20423 16.5746V16.5746ZM26.036 15.7242H24.1648L23.7981 16.5768H22.5607C21.5204 16.5768 21.0591 15.7047 21.0815 14.6471C21.1132 13.0776 22.0409 12.7513 22.4675 12.7513H23.6919V13.583H23.1122C22.4892 13.583 22.0034 13.6479 22.0034 14.5431V14.8203C22.0077 15.4939 22.3607 15.6534 22.5867 15.7004C22.6423 15.7134 22.7448 15.7184 22.7823 15.7155L23.188 15.7134L24.4803 12.7535H25.722L27.321 16.34V12.7513H28.7064L30.2888 15.3972V12.7513H31.2266V16.5768H29.9474L28.2588 13.7786V16.5768H26.4078L26.036 15.7242V15.7242Z" fill="#00ACEC"/>
<path d="M33.5512 18.7253V1.7168H1.68481V14.8688L2.8796 12.1746H4.90964L5.57525 13.7772V12.1746H8.04783L8.79863 13.7613L9.53211 12.1746H18.2493C18.5901 12.1746 19.0506 12.2944 19.2564 12.6691V12.1746H21.0814V12.7543C21.3204 12.4308 21.6784 12.1746 22.3773 12.1746H26.0966L26.7788 13.726V12.1746H28.98L29.764 13.5224V12.1746H31.7767V17.1544H29.6109L28.7063 15.6882V17.1544H25.9602L25.5169 16.1819H24.6463L24.2369 17.1544H22.5137C22.1383 17.1212 21.2691 16.9667 21.0814 16.3877V17.1544H17.7721V16.0635C17.7721 15.9091 17.6357 15.7221 17.448 15.7221H17.0899V17.1544H10.0439V16.0289L9.5155 17.1544H8.08249L7.53671 16.0116V17.1544H4.72194L4.34654 16.2679H3.44197L3.04997 17.1544H1.68481V33.241H33.5512V23.3817C33.3808 23.5701 33.1079 23.7231 32.6986 23.7231H30.0361V23.3477C29.8318 23.5701 29.5423 23.7231 29.081 23.7231H21.5759V22.6829C21.5586 22.5457 21.6272 22.2562 21.2518 22.2562H20.945V23.7231H18.9489V22.0331C18.7438 22.376 18.3013 22.3919 18.0111 22.4092H16.9527V23.7231H14.2917L13.5236 22.7846L12.705 23.7231H8.185V18.7253H12.7735L13.5749 19.6291L14.3942 18.7253H18.0277C18.2832 18.7412 18.7691 18.861 18.9489 19.1339V18.7253H22.0538C22.3267 18.7253 22.8552 18.8437 23.0775 19.2017V18.7253H26.9665V19.1678C27.1708 18.8956 27.4957 18.7253 27.9895 18.7253H30.4801V19.1519C30.6678 18.8783 31.1631 18.7253 31.4533 18.7253H33.5512V18.7253ZM42.3211 18.2907C42.3211 18.9296 39.8889 18.225 39.8889 19.7786C39.8889 20.4882 40.4628 20.8095 41.1082 20.8095C41.6172 20.8095 42.0078 20.7041 42.3933 20.3453L42.5319 20.7106H43.7584C43.6884 20.5777 43.6776 20.4045 43.6776 20.2095V18.6112C43.6776 17.7954 43.5794 17.1955 41.9623 17.1955C40.6123 17.1955 40.0968 17.6193 40.0968 18.3427H41.4013C41.4338 18.0496 41.6887 18.0113 41.8778 18.0113C42.0222 18.0113 42.3211 18.0438 42.3211 18.2907V18.2907ZM49.3786 20.25V20.707H50.5972V16.0101H49.2421V17.6345C48.9541 17.2951 48.6545 17.1912 48.2242 17.1912C47.4085 17.1912 46.7761 17.9276 46.7761 19.0631C46.7761 20.0283 47.298 20.8044 48.3282 20.8044C48.7664 20.8044 49.0595 20.668 49.3786 20.25V20.25ZM46.4245 18.3672V17.2107C46.366 17.2042 46.3068 17.1912 46.2476 17.1912C45.7206 17.1912 45.3871 17.4453 45.1979 17.981H45.1849V17.2894H43.9526V20.7062H45.3084V19.3606C45.3084 18.6235 45.5892 18.3621 46.1437 18.3621L46.4245 18.3672V18.3672ZM38.3281 17.7969C38.2819 17.3089 37.9751 17.028 37.4929 17.028C36.9514 17.028 36.6251 17.4915 36.6251 18.3975C36.6251 19.0566 36.7688 19.6753 37.5506 19.6753C38.0473 19.6753 38.2819 19.331 38.3411 18.8805H39.8211C39.6853 20.0933 38.8169 20.8225 37.5788 20.8225C36.0266 20.8225 35.0867 19.8724 35.0867 18.3448C35.0867 16.8252 36.1169 15.8795 37.4286 15.8795C38.8631 15.8795 39.6658 16.5906 39.79 17.7962H38.3281V17.7969V17.7969Z" fill="#00ACEC"/>
<path d="M16.4069 21.0614H17.5757C17.9591 21.0614 18.0955 20.839 18.0955 20.5834C18.0955 20.3957 17.9721 20.1452 17.5793 20.1452H16.4069V21.0614ZM11.8689 20.1366H9.74142V20.852H11.809V21.5768H9.74142V22.3334H11.9036L12.9359 21.1805L12.0227 20.1402L11.8689 20.1366ZM20.4244 21.0108H21.5932C21.9766 21.0108 22.113 20.8397 22.113 20.5834C22.113 20.3957 21.9895 20.1452 21.5968 20.1452H20.4244V21.0108V21.0108ZM16.5939 14.4428H17.7627C18.1468 14.4428 18.2825 14.2724 18.2825 14.0161C18.2825 13.8291 18.159 13.5765 17.7663 13.5765H16.5939V14.4428V14.4428ZM4.46923 14.8998H3.32715L3.88736 13.5635L4.46923 14.8998ZM25.0902 13.5656L24.5314 14.9012H25.6778L25.0902 13.5656Z" fill="white"/>
<path d="M53.1209 21.7537L41.6416 33.2322H43.2717L53.1209 23.3838V21.7537Z" fill="#3B4095"/>
<path d="M53.121 24.9655L44.855 33.2322H46.4836L53.121 26.5963V24.9655Z" fill="#00ACEC"/>
<path d="M53.121 28.1781L48.0654 33.2323H49.697L53.121 29.8075V28.1781Z" fill="#6CB35E"/>
<path d="M34.717 31.4245C34.7175 31.1861 34.765 30.9502 34.8567 30.7302C34.9484 30.5101 35.0825 30.3103 35.2515 30.1422C35.4204 29.9741 35.6209 29.8408 35.8413 29.7502C36.0618 29.6595 36.2979 29.6132 36.5363 29.6139C36.7741 29.6137 37.0096 29.6604 37.2294 29.7513C37.4491 29.8423 37.6488 29.9756 37.817 30.1438C37.9851 30.3119 38.1185 30.5116 38.2094 30.7314C38.3004 30.9511 38.3471 31.1867 38.3469 31.4245C38.3479 31.663 38.3019 31.8993 38.2114 32.12C38.1209 32.3407 37.9877 32.5413 37.8195 32.7104C37.6512 32.8795 37.4513 33.0137 37.2311 33.1053C37.0109 33.197 36.7748 33.2443 36.5363 33.2444C36.2972 33.2447 36.0605 33.1978 35.8396 33.1065C35.6187 33.0151 35.418 32.881 35.249 32.712C35.08 32.5429 34.946 32.3422 34.8547 32.1212C34.7635 31.9003 34.7167 31.6635 34.717 31.4245V31.4245Z" fill="#00ACEC"/>
<path d="M38.1282 31.4245C38.1283 31.2155 38.0872 31.0085 38.0072 30.8153C37.9272 30.6222 37.81 30.4467 37.6621 30.2989C37.5143 30.1512 37.3388 30.034 37.1456 29.9541C36.9524 29.8742 36.7454 29.8332 36.5364 29.8334C36.327 29.8328 36.1196 29.8735 35.926 29.9532C35.7324 30.0329 35.5565 30.15 35.4082 30.2978C35.2599 30.4456 35.1423 30.6212 35.062 30.8145C34.9817 31.0079 34.9403 31.2151 34.9402 31.4245C34.9402 31.8473 35.1081 32.2527 35.4071 32.5516C35.706 32.8506 36.1114 33.0185 36.5342 33.0185C36.9569 33.0185 37.3624 32.8506 37.6613 32.5516C37.9603 32.2527 38.1282 31.8473 38.1282 31.4245V31.4245Z" fill="white"/>
<path d="M37.4387 32.4417H37.1449L36.5638 31.5053H36.1089V32.4417H35.8613V30.4116H36.745C36.9161 30.4116 37.0872 30.4217 37.2395 30.512C37.3918 30.5979 37.4669 30.7784 37.4669 30.9487C37.4669 31.3487 37.1875 31.4959 36.8258 31.5053L37.4387 32.4417V32.4417Z" fill="#00ACEC"/>
<path d="M36.4894 31.3105C36.7745 31.3105 37.2163 31.3582 37.2163 30.9438C37.2163 30.6305 36.9406 30.5929 36.6886 30.5929H36.1096V31.3105H36.4894ZM42.321 19.1974C42.3246 19.837 42.1283 20.0392 41.6525 20.0392C41.3847 20.0392 41.2215 19.9215 41.2215 19.7525C41.2223 19.3078 41.8785 19.4125 42.321 19.1974V19.1974ZM49.2876 19.0306C49.2876 19.4277 49.1381 19.8255 48.6682 19.8255C48.2256 19.8255 48.1347 19.4089 48.1347 19.0494C48.1347 18.6726 48.2581 18.2408 48.7086 18.2408C49.1576 18.2408 49.2876 18.6516 49.2876 19.0306Z" fill="white"/>
</g>
<defs>
<clipPath id="clip0_4207_613">
<rect width="55" height="34.98" fill="white"/>
</clipPath>
</defs>
</svg>
